<svg id="Calque_1" data-name="Calque 1" xmlns="http://www.w3.org/2000/svg" viewBox="0 0 600 600"><defs><style>.cls-1,.cls-2,.cls-3{fill:none;stroke:#000;stroke-miterlimit:10;}.cls-1{stroke-width:2px;}.cls-2{stroke-width:2.02px;}.cls-3{stroke-width:1.95px;}</style></defs><title>Plan de travail 1</title><path class="cls-1" d="M50.67,421.33c30.66-7.13,46.84-19.93,56-30.67,5.61-6.57,8-11.68,16.67-19.33,6.34-5.6,21.76-19.22,40.67-20,15.52-.64,26.61,7.66,46.67,22.67,28.2,21.1,28.17,31.56,46,37.33,19.79,6.41,38.64-.38,48.67-4,18.71-6.75,22.54-14.54,54.67-38.67C386.12,349,399.18,339.24,410.67,336c26.54-7.48,38.44,4.14,74,3.33,24.39-.56,30.78-10.68,61.33-13.33a208.73,208.73,0,0,1,36,0"/><path class="cls-2" d="M50.67,421.33c28.54-14,46.73-30,58.2-42.23,27.44-29.36,43.82-55.43,43.82-55.43,10-15.85,17.25-30.56,32.87-34.32,9-2.16,12.53,1.3,21.91.66,22.08-1.5,36.38-23,46.56-35.63,23.47-29.18,51.56-44.48,75.32-57.41,61.84-33.67,94.48-8.8,134.2-43.55,8-7,20.39-20,41.77-25.74,9.46-2.54,19.21-3.05,38.34-4,15.87-.75,29.07-.78,38.34-.66"/><path class="cls-3" d="M582,417.12c-358.94,2.77-498.57,3.89-507.37,4-1.3,0-11.06.18-25,.2h-38C71,418.86,99.36,429,114.3,439.2a113.34,113.34,0,0,0,26.63,14.29c18.84,7,29.35,4.9,42.87,7.15,32.86,5.46,34.26,28.29,68.21,42.22,11.56,4.74,18.56,5,70.8,5.2,38.56.12,70.59.07,93.54,0"/></svg>